PathFileType	4	(x/y/z)	S09_M20_T18
DataRate	CameraRate	NumFrames	NumMarkers	Units	OrigDataRate	OrigDataStartFrame	OrigNumFrames
240	240	6	51	mm	240	280	558
Frame#	Time	Sternum			R.Acromium			L.Acromium			Top.Head			R.ASIS			L.ASIS			R.PSIS			L.PSIS			R.Great.Tro			L.Great.Tro			R.Iliac.Crest			L.Iliac.Crest			V.Sacral			R.Thigh.Upper.Post			R.Thigh.Lower.Ant			R.Thigh.Lower.Post			R.Thigh.Upper.Ant			R.Knee.Lat			R.Knee.Med			R.Shank.Upper.Post			R.Shank.Lower.Ant			R.Shank.Lower.Post			R.Shank.Upper.Ant			R.Ankle.Lat			R.Ankle.Med			R.Heel.Upper			R.Heel.Med			R.Heel.Lat			R.Toe.Lat			R.Toe.Med			R.Toe.Tip			L.Thigh.Upper.Post			L.Thigh.Lower.Ant			L.Thigh.Lower.Post			L.Thigh.Upper.Ant			L.Knee.Lat			L.Knee.Med			L.Shank.Upper.Post			L.Shank.Lower.Ant			L.Shank.Lower.Post			L.Shank.Upper.Ant			L.Ankle.Lat			L.Ankle.Med			L.Heel.Upper			L.Heel.Med			L.Heel.Lat			L.Toe.Lat			L.Toe.Med			L.Toe.Tip			Cervical.Spine			Back			
		X1	Y1	Z1	X2	Y2	Z2	X3	Y3	Z3	X4	Y4	Z4	X5	Y5	Z5	X6	Y6	Z6	X7	Y7	Z7	X8	Y8	Z8	X9	Y9	Z9	X10	Y10	Z10	X11	Y11	Z11	X12	Y12	Z12	X13	Y13	Z13	X14	Y14	Z14	X15	Y15	Z15	X16	Y16	Z16	X17	Y17	Z17	X18	Y18	Z18	X19	Y19	Z19	X20	Y20	Z20	X21	Y21	Z21	X22	Y22	Z22	X23	Y23	Z23	X24	Y24	Z24	X25	Y25	Z25	X26	Y26	Z26	X27	Y27	Z27	X28	Y28	Z28	X29	Y29	Z29	X30	Y30	Z30	X31	Y31	Z31	X32	Y32	Z32	X33	Y33	Z33	X34	Y34	Z34	X35	Y35	Z35	X36	Y36	Z36	X37	Y37	Z37	X38	Y38	Z38	X39	Y39	Z39	X40	Y40	Z40	X41	Y41	Z41	X42	Y42	Z42	X43	Y43	Z43	X44	Y44	Z44	X45	Y45	Z45	X46	Y46	Z46	X47	Y47	Z47	X48	Y48	Z48	X49	Y49	Z49	X50	Y50	Z50	X51	Y51	Z51	

280	1.1625	606.13	1205.8	313.9	458.09	1445.6	465.34	453.99	1436.6	153.66	461.85	1741.3	304.09	582.52	1036.4	423.9	558.93	1026.7	178.71	354.4	1046	362.6	354.6	1041.3	272.68	512.73	948.59	502.74	492.73	929.96	114.11	490.9	1112.9	473.63	444.5	1112.3	147.69	336.66	1007.4	316.77	516.41	689.8	466.17	586.5	593.58	414.36	509.71	600.32	435.05	585.8	678.75	448.17	560.66	518.72	405.67	543.06	515.98	285.06	469.15	349.61	411.62	529.81	283.65	393.98	457.17	274.43	399.23	534	356.45	408.47	461.8	92.834	374.06	483.67	102.28	282.77	397.46	79.625	320.21	407.77	47.799	291.14	397.95	48.808	355.68	556.82	41.217	410.65	606.49	44.92	303.89	652.5	61.011	351.24	518.03	667.9	146.34	622.26	600.17	127.16	561.63	586.91	156.09	581.79	678.5	113.07	621.6	523.77	134.31	664.16	529.85	267.41	532.92	427.25	130.55	552.97	318.61	134.21	501.4	357.04	136.87	584.87	389.59	128.97	432.83	169.27	155.92	459.91	156.06	245.14	359.47	152.68	219.76	368.44	124.48	249.81	347.84	127.1	191.41	498.84	70.784	110.62	552.52	60.37	210.24	594.93	64.628	145.38	377.71	1485.5	319.99	344.34	1215.1	312.05
281	1.1667	610.68	1206.2	314.38	462.79	1446.1	465.47	458.65	1436.9	153.8	466.81	1741.6	304.15	586.42	1036.3	424.53	563.65	1027.2	179.25	358.53	1046.4	362.47	358.99	1041.8	272.53	515.98	948.54	503.06	498.03	930.85	114.12	494.92	1113	473.97	449.35	1112.9	148.06	340.9	1007.9	316.53	518.18	689.96	466.3	587.8	593.28	414.76	511.03	600.5	435.27	587.53	678.48	448.49	561.53	518.53	406.05	544.2	515.86	285.38	469.61	349.64	411.8	530.11	283.59	394.13	457.5	274.5	399.34	534.45	356.37	408.65	461.81	92.909	374.08	483.72	102.31	282.72	397.51	79.658	320.14	407.76	47.817	291.1	397.98	48.881	355.64	556.83	41.181	410.66	606.55	44.878	303.91	652.55	60.913	351.28	524.61	668.69	145.92	629.38	601.69	127.52	568.6	588.03	156.08	588.55	679.7	113.2	629.01	524.99	135.03	670.92	531.55	268.35	541.81	426.53	131.71	564.47	318.34	134.58	512	355.55	137.84	594.61	390.09	129.52	448.07	166	156.28	476.02	152.98	245.32	375.49	147.46	220.54	385.32	119.33	250.4	364.31	121.71	192.16	516.13	69.261	110.16	570.63	59.603	209.41	612.56	65.136	144.27	382.47	1485.9	320.1	348.87	1215.5	312.37
282	1.1708	615.24	1206.5	314.88	467.49	1446.6	465.59	463.32	1437.1	153.93	471.77	1741.8	304.19	590.31	1036.2	425.14	568.38	1027.7	179.78	362.67	1046.8	362.34	363.38	1042.2	272.38	519.23	948.44	503.35	503.32	931.69	114.13	498.95	1113	474.31	454.22	1113.5	148.42	345.14	1008.4	316.29	519.97	690.09	466.41	589.12	592.98	415.13	512.39	600.65	435.46	589.28	678.2	448.78	562.43	518.34	406.4	545.34	515.73	285.68	470.09	349.65	411.97	530.44	283.53	394.26	457.87	274.56	399.45	534.92	356.29	408.82	461.82	92.98	374.08	483.78	102.33	282.68	397.56	79.69	320.07	407.76	47.831	291.07	398.01	48.954	355.59	556.85	41.145	410.67	606.61	44.835	303.94	652.59	60.816	351.31	531.11	669.44	145.56	636.41	603.12	127.89	575.45	589.11	156.11	595.23	680.83	113.36	636.31	526.13	135.76	677.58	533.16	269.28	550.72	425.7	132.79	575.99	318.04	134.97	522.65	353.99	138.75	604.34	390.53	130.07	463.41	162.78	156.63	492.21	150	245.49	391.65	142.33	221.28	402.32	114.31	250.98	380.91	116.41	192.9	533.48	67.789	109.77	588.76	58.974	208.66	630.2	65.723	143.26	387.22	1486.3	320.2	353.4	1215.9	312.67
283	1.175	619.82	1206.7	315.39	472.18	1447	465.72	468.02	1437.3	154.05	476.72	1742	304.23	594.2	1036.1	425.73	573.12	1028.1	180.28	366.8	1047.2	362.2	367.78	1042.7	272.22	522.47	948.31	503.63	508.59	932.47	114.14	502.98	1113	474.64	459.09	1114	148.78	349.37	1008.8	316.04	521.79	690.21	466.5	590.47	592.66	415.47	513.77	600.8	435.64	591.05	677.91	449.04	563.37	518.14	406.74	546.48	515.58	285.96	470.6	349.66	412.13	530.78	283.46	394.37	458.26	274.63	399.54	535.42	356.19	408.98	461.84	93.049	374.08	483.83	102.34	282.63	397.61	79.723	319.99	407.77	47.841	291.04	398.03	49.027	355.55	556.87	41.111	410.67	606.65	44.79	303.96	652.63	60.722	351.34	537.53	670.15	145.26	643.33	604.48	128.29	582.19	590.14	156.18	601.82	681.89	113.55	643.51	527.21	136.5	684.13	534.68	270.21	559.64	424.77	133.79	587.52	317.72	135.38	533.34	352.39	139.6	614.06	390.91	130.62	478.84	159.62	156.97	508.46	147.15	245.67	407.93	137.32	221.99	419.43	109.45	251.53	397.65	111.21	193.61	550.88	66.38	109.45	606.89	58.496	208	647.84	66.4	142.36	391.98	1486.6	320.29	357.93	1216.2	312.95
284	1.1792	624.41	1206.9	315.92	476.88	1447.3	465.83	472.74	1437.4	154.17	481.66	1742.2	304.25	598.1	1035.9	426.31	577.87	1028.5	180.77	370.93	1047.5	362.05	372.18	1043.1	272.05	525.71	948.14	503.88	513.83	933.2	114.16	507	1112.9	474.97	463.97	1114.5	149.12	353.59	1009.3	315.77	523.63	690.31	466.57	591.83	592.34	415.79	515.19	600.93	435.8	592.84	677.61	449.28	564.33	517.92	407.06	547.63	515.42	286.22	471.13	349.67	412.27	531.14	283.38	394.48	458.67	274.69	399.63	535.94	356.09	409.13	461.86	93.116	374.06	483.89	102.34	282.58	397.67	79.756	319.92	407.79	47.849	291.01	398.06	49.1	355.51	556.89	41.077	410.67	606.69	44.746	303.97	652.67	60.629	351.37	543.87	670.82	145.03	650.15	605.74	128.71	588.8	591.1	156.31	608.32	682.88	113.78	650.62	528.21	137.24	690.58	536.13	271.14	568.59	423.75	134.7	599.08	317.37	135.82	544.08	350.73	140.38	623.78	391.23	131.17	494.37	156.52	157.31	524.77	144.44	245.84	424.33	132.43	222.65	436.63	104.74	252.06	414.51	106.13	194.28	568.34	65.047	109.19	625.03	58.177	207.43	665.47	67.178	141.56	396.75	1486.9	320.37	362.46	1216.6	313.22
285	1.1833	629	1207	316.46	481.57	1447.7	465.94	477.48	1437.4	154.29	486.6	1742.3	304.26	601.99	1035.6	426.87	582.64	1028.8	181.24	375.06	1047.8	361.87	376.59	1043.5	271.86	528.94	947.95	504.12	519.05	933.86	114.18	511.02	1112.8	475.29	468.85	1115	149.45	357.82	1009.7	315.49	525.51	690.4	466.63	593.22	592.02	416.09	516.63	601.04	435.94	594.65	677.3	449.48	565.34	517.69	407.35	548.79	515.24	286.46	471.69	349.68	412.41	531.52	283.3	394.58	459.09	274.75	399.7	536.5	355.97	409.27	461.89	93.182	374.03	483.95	102.33	282.53	397.72	79.791	319.84	407.82	47.854	290.99	398.09	49.172	355.47	556.91	41.045	410.67	606.73	44.701	303.98	652.7	60.538	351.4	550.12	671.43	144.86	656.87	606.91	129.16	595.29	592.01	156.5	614.73	683.8	114.04	657.64	529.13	138	696.93	537.49	272.07	577.58	422.65	135.54	610.67	317.02	136.28	554.86	349.04	141.1	633.5	391.5	131.72	509.98	153.5	157.64	541.13	141.86	246.01	440.83	127.66	223.26	453.92	100.21	252.56	431.49	101.17	194.93	585.85	63.806	109	643.16	58.027	206.96	683.1	68.067	140.87	401.53	1487.2	320.43	366.99	1216.8	313.48
